<svg width="278" height="376" viewBox="0 0 278 376" fill="none" xmlns="http://www.w3.org/2000/svg">
<path fill-rule="evenodd" clip-rule="evenodd" d="M209.75 204.94C207.617 196.65 205.655 193.135 201.866 190.254C198.322 187.558 193.148 185.295 185.599 183.641C177.736 182.264 177.514 178.169 175.542 171.587C174.967 169.609 172.117 169.082 170.887 170.508C170.713 170.321 170.533 170.149 170.345 169.994C170.513 169.05 169.142 166.345 169.188 165.443C169.666 156.021 166.59 151.29 158.915 149.531C157.245 149.149 145.907 148.923 144.28 149.374C137.164 151.346 130.16 157.605 131.231 165.145C128.998 168.069 126.812 169.855 123.366 170.797C115.698 171.773 108.03 172.64 100.359 173.383C85.3441 175.743 71.2662 183.707 61.6444 195.322C60.757 196.394 60.5006 197.849 61.2838 198.993C60.6703 201.626 57.2165 208.014 59.934 209.819C55.4652 220.529 45.1832 241.23 45.164 247.144C45.0829 271.989 47.7612 304.328 72.2273 318.077C73.2069 319.042 73.3471 320.11 73.7712 321.545C74.8468 326.069 78.7533 329.301 83.029 329.037C104.092 329.506 124.493 326.931 145.556 326.807C154.845 326.752 166.016 328.141 174.085 329.067C182.155 329.992 190.3 329.174 198.044 326.807C198.697 327.837 200.017 328.437 201.356 328.141C209.384 326.543 215.876 321.586 221.53 316.167C223.258 313.018 230.005 304.044 227.323 300.92C229.755 290.621 229.628 279.554 225.308 269.746C225.92 267.948 224.804 265.973 225.308 264.116C225.672 262.773 226.606 262.217 227.076 260.887C227.738 259.015 227.018 256.503 226.274 254.593C225.968 253.641 226.835 252.616 227.076 251.644C228.219 247.062 225.602 247.466 223.716 244.403C223.744 244.393 224.235 242.206 224.233 242.217C224.521 240.656 223.798 238.655 223.167 237.352C222.74 236.471 221.826 235.92 220.919 236.021C221.833 232.911 222.989 230.323 224.233 227.326C226.432 222.044 229.215 216.986 232.373 212.205C233.666 210.247 231.929 207.979 229.837 207.846C223.063 207.414 216.364 206.437 209.75 204.94Z" fill="white"/>
<path fill-rule="evenodd" clip-rule="evenodd" d="M189.982 244.885C187.273 243.82 184.356 243.232 181.424 243.003C183.003 242.726 184.586 242.459 186.182 242.321C187.295 242.226 188.328 242.236 189.165 243.082C189.723 243.646 189.985 244.372 190.352 245.039C190.232 244.985 190.107 244.934 189.982 244.885ZM219.059 234.931C214.623 235.157 210.181 236.214 206.168 238.13C204.526 238.915 203.038 240.048 202.602 241.912C202.382 242.864 202.436 243.847 202.553 244.809C202.641 245.537 202.663 246.467 203.295 246.96C203.402 247.043 203.517 247.107 203.637 247.153C202.157 247.823 200.747 248.628 199.494 249.456C198.349 250.214 197.172 251.382 196.643 252.699C196.599 252.549 196.555 252.41 196.511 252.277C195.611 249.609 194.223 247.423 192.038 245.954C192.424 245.78 192.691 245.368 192.566 244.799C192.047 242.422 189.857 240.357 187.383 240.504C184.674 240.663 181.764 241.652 179.315 242.9C178.422 242.881 177.531 242.893 176.65 242.932C176.498 242.937 176.505 243.143 176.65 243.16C177.364 243.251 178.079 243.352 178.794 243.469C180.492 243.742 182.185 244.087 183.842 244.517C185.829 245.032 187.885 245.549 189.742 246.449C193.344 248.198 195.574 252.77 195.116 256.748C195.04 257.401 194.788 259.373 193.885 259.169C193.122 258.997 192.818 257.401 192.552 256.81C191.837 255.24 190.55 254.215 189.006 253.521C187.192 252.704 185.252 252.152 183.372 251.51C182.308 251.144 181.243 250.778 180.176 250.415C179.085 250.04 178.047 249.523 176.885 249.785C176.182 249.944 176.102 250.783 176.496 251.264C177.095 251.997 177.986 252.213 178.85 252.515C179.99 252.912 181.128 253.31 182.266 253.707C184.025 254.32 185.868 254.838 187.584 255.588L187.53 255.711C187.39 255.672 187.226 255.811 187.253 255.983C187.51 257.57 187.868 259.405 187.471 260.994C187.158 262.255 186.054 263.65 184.62 263.28C184.845 263.074 184.929 262.718 184.777 262.39C184.209 261.173 176.77 256.371 176.107 258.154C176.085 258.217 176.153 258.264 176.207 258.255C176.772 258.137 177.719 259.103 178.172 259.409C178.825 259.851 179.488 260.283 180.135 260.736C180.842 261.232 181.532 261.752 182.205 262.289C182.733 262.711 183.132 263.15 183.739 263.363C183.421 263.515 183.169 263.797 183.061 264.158C182.787 265.097 182.259 265.894 181.341 266.309C180.379 266.741 179.295 266.468 178.282 266.574C176.902 266.714 175.698 267.371 174.692 268.311C172.58 270.287 171.521 273.77 168.567 274.705C166.802 275.262 164.845 274.911 163.058 274.658C161.064 274.376 159.121 274.153 157.111 274.447C155.188 274.729 153.37 275.396 151.613 276.211C149.966 276.973 148.145 277.837 146.684 278.975C146.383 278.045 146.08 277.125 145.849 276.176C145.306 273.932 145.013 271.646 144.941 269.34C144.876 267.146 144.998 264.941 145.186 262.755C145.279 261.664 145.426 260.577 145.519 259.486C145.543 259.211 145.593 258.916 145.629 258.622C148.238 257.079 150.979 255.897 153.741 254.681C153.749 254.678 153.756 254.673 153.764 254.671C153.849 254.632 153.933 254.595 154.018 254.558C154.016 254.553 154.013 254.548 154.008 254.543C154.324 254.35 154.544 254.092 154.677 253.803C158.658 251.156 161.986 247.544 164.468 243.33C165.508 241.564 166.509 239.731 167.869 238.184C169.318 236.533 171.038 235.552 173.167 235.042C175.656 234.444 178.221 234.085 180.771 233.882C182.163 233.772 183.719 233.6 185.237 233.607C186.294 233.614 187.329 233.705 188.279 233.968C189.686 234.355 190.508 235.427 191.392 236.511C192.236 237.551 193.075 238.594 193.863 239.678C194.609 240.705 195.314 241.767 195.926 242.881C196.293 243.548 196.633 244.235 196.92 244.943C197.02 245.194 197.152 245.478 197.213 245.738C197.275 246.001 197.162 246.278 197.456 246.278C196.244 246.295 196.257 248.235 197.461 248.164C202.174 247.889 195.422 238.667 194.436 237.382C193.038 235.562 191.597 233.188 189.36 232.341C189.329 232.329 189.294 232.317 189.263 232.307C189.914 231.689 190.427 230.949 190.919 230.195C191.426 229.42 192.03 228.532 192.197 227.613C192.302 227.027 191.575 226.693 191.23 227.205C190.728 227.954 190.486 228.9 190.112 229.722C189.73 230.556 189.265 231.343 188.898 232.184C188.015 231.912 187.06 231.787 186.089 231.746C187.315 230.083 189.409 226.874 189.661 226.462C190.821 224.554 191.925 222.587 192.98 220.617C194.12 218.484 195.097 216.261 196.188 214.103C196.807 212.879 197.431 211.645 198.119 210.458C198.356 210.051 198.611 209.644 198.9 209.274C198.956 209.2 199.027 209.139 199.093 209.07C199.169 209.028 199.247 208.982 199.291 208.958C199.687 208.729 199.827 208.2 200.106 207.863C200.551 207.322 201.075 207.258 201.746 207.25C203.175 207.236 204.609 207.292 206.036 207.331C208.133 207.39 210.228 207.473 212.322 207.584C212.956 207.618 213.588 207.652 214.221 207.692C217.268 207.873 220.312 208.111 223.349 208.403C226.036 208.661 228.723 209.08 231.413 209.281C227.771 217.952 223.734 226.465 219.162 234.682C219.116 234.765 219.081 234.848 219.059 234.931ZM198.856 257.268C198.268 257.538 197.698 257.874 197.167 258.257C197.255 257.661 197.277 257.033 197.253 256.402C197.691 256.873 198.251 257.143 198.856 257.268ZM223.927 242.354C223.885 242.358 223.846 242.38 223.827 242.422C223.014 244.102 223.354 245.978 224.681 247.296C225.376 247.982 226.89 248.757 226.841 249.886C226.8 250.798 225.809 251.563 225.385 252.316C224.991 253.018 224.845 253.788 225.16 254.548C225.564 255.522 226.692 255.909 227.079 256.866C227.568 258.08 226.773 259.545 226.215 260.602C225.696 261.58 225.025 262.559 224.58 263.594C221.597 265.142 218.927 267.516 216.632 269.927C214.119 272.564 211.963 275.666 207.971 275.588C207.572 275.58 207.269 275.791 207.088 276.083C205.977 276.134 204.863 276.157 203.752 276.162C201.8 276.171 199.847 276.152 197.896 276.09C197.759 275.617 197.86 274.975 197.852 274.575C197.828 273.287 197.816 272.002 197.762 270.714C197.747 270.356 197.732 269.995 197.718 269.637C198.42 270.91 199.79 271.489 201.352 271.401C203.863 271.254 206.388 270.842 208.874 270.471C210.184 270.277 211.49 270.057 212.795 269.821C213.867 269.63 215.379 269.679 216.128 268.818C216.304 268.617 216.314 268.249 216.037 268.114C215.296 267.749 214.828 267.952 214.013 268.109C213.02 268.303 212.024 268.487 211.025 268.659C209.109 268.992 207.188 269.301 205.262 269.574C204.166 269.728 203.067 269.88 201.968 270C201.009 270.103 199.927 270.243 199.154 269.52C197.595 268.058 198.469 265.607 199.455 264.131C199.475 264.102 199.475 264.075 199.467 264.05C200.397 263.832 201.325 263.577 202.25 263.398C204.029 263.054 205.82 262.765 207.614 262.507C211.299 261.98 215.009 261.632 218.714 261.281C219.632 261.193 219.642 259.746 218.714 259.832C213.392 260.32 208.042 260.783 202.791 261.811C201.474 262.066 200.167 262.355 198.868 262.681C198.254 262.834 197.595 263.072 196.952 263.079C196.913 263.079 196.873 263.079 196.834 263.076C195.574 263.037 195.39 261.956 196.083 261.055C196.169 260.945 196.257 260.835 196.347 260.729C197.571 259.267 199.095 258.291 200.666 257.281C202.426 257.04 204.181 256.505 205.903 256.113C210.157 255.142 214.41 254.171 218.666 253.202C219.5 253.01 219.145 251.725 218.311 251.914C215.08 252.648 211.85 253.381 208.62 254.114L203.892 255.189C202.947 255.402 201.767 255.831 200.656 255.986C200.109 256.062 199.577 256.071 199.098 255.959C197.549 255.591 197.47 253.651 198.139 252.498C198.887 251.203 200.302 250.393 201.557 249.66C203.733 248.387 206.048 247.472 208.309 246.417C208.71 246.329 209.112 246.241 209.513 246.153C211.848 245.638 214.515 245.385 216.713 244.441C217.371 244.161 217.011 243.121 216.36 243.136C214.655 243.173 212.871 243.781 211.204 244.141C209.4 244.534 207.594 244.924 205.791 245.314C205.61 245.353 204.538 245.696 204.376 245.62C204.274 245.571 204.237 245.213 204.203 244.978C204.092 244.203 204.012 243.389 204.132 242.611C204.396 240.867 205.847 240.048 207.315 239.378C210.585 237.889 214.17 236.958 217.738 236.585C218.56 236.499 219.383 236.445 220.21 236.418C221.181 236.388 221.981 236.217 222.473 237.176C223.247 238.687 223.672 240.629 223.927 242.354ZM219.386 297.133C218.674 294.664 218.868 292.027 218.38 289.509C218.128 288.209 217.784 286.92 217.409 285.651C217.106 284.627 216.601 283.537 216.543 282.467C216.54 282.396 216.624 282.355 216.682 282.388C217.687 282.965 218.458 284.212 219.032 285.19C219.718 286.362 220.242 287.588 220.664 288.877C221.507 291.446 222.198 294.545 221.112 297.133C220.789 297.904 219.653 298.058 219.386 297.133ZM197.37 264.425C197.972 264.367 198.574 264.251 199.176 264.116C198.503 264.774 197.882 265.566 197.536 266.444C197.483 265.77 197.414 265.097 197.324 264.428C197.338 264.428 197.355 264.428 197.37 264.425ZM191.585 315.827C190.523 315.084 189.749 314.046 188.849 313.13C187.964 312.23 189.348 310.842 190.233 311.743C191.002 312.524 191.668 313.501 192.572 314.133C193.008 314.436 193.209 314.986 192.924 315.475C192.672 315.906 192.018 316.13 191.585 315.827ZM185.664 287.29C187.602 286.451 189.508 285.536 191.536 284.931C192.748 284.569 193.262 286.464 192.057 286.823C190.189 287.38 188.437 288.211 186.652 288.985C185.507 289.481 184.511 287.79 185.664 287.29ZM165.198 286.703C164.724 285.531 166.619 285.026 167.086 286.181C167.624 287.511 168.24 288.807 168.778 290.137C169.251 291.309 167.357 291.814 166.89 290.658C166.352 289.329 165.736 288.033 165.198 286.703ZM144.998 310.106C144.683 310.528 144.156 310.757 143.659 310.458C143.242 310.208 142.988 309.543 143.308 309.116C144.241 307.87 145.186 306.638 146.28 305.527C147.166 304.626 148.55 306.014 147.664 306.914C146.688 307.907 145.832 308.993 144.998 310.106ZM142.11 178.79C143.008 179.406 143.796 180.153 144.563 180.922C145.456 181.816 144.071 183.203 143.179 182.309C142.532 181.661 141.88 181.003 141.122 180.485C140.684 180.185 140.487 179.628 140.77 179.142C141.024 178.708 141.673 178.492 142.11 178.79ZM171.498 210.366C170.99 211.385 170.533 212.385 170.504 213.544C170.473 214.806 168.515 214.807 168.546 213.544C168.584 212.027 169.142 210.712 169.808 209.375C170.371 208.244 172.059 209.239 171.498 210.366ZM182.281 185.007C183.334 184.303 184.313 186.004 183.269 186.701C182.424 187.266 181.578 187.831 180.732 188.396C179.68 189.099 178.701 187.399 179.744 186.702C180.59 186.137 181.435 185.572 182.281 185.007ZM135.512 229.345C135.332 230.592 133.446 230.058 133.624 228.824C133.899 226.915 134.235 225.031 134.752 223.172C135.09 221.956 136.978 222.476 136.639 223.694C136.123 225.553 135.787 227.436 135.512 229.345ZM128.648 251.822C127.388 251.795 127.387 249.833 128.648 249.859C129.788 249.884 130.909 250.184 132.009 250.46C133.233 250.766 132.711 252.658 131.489 252.352C130.559 252.119 129.612 251.842 128.648 251.822ZM126.114 297.099C125.681 297.31 125.237 297.5 124.799 297.7C123.923 298.102 123.047 298.504 122.171 298.907C120.347 299.746 118.524 300.588 116.703 301.433C113.056 303.125 109.382 304.757 105.727 306.43C102 308.137 98.282 309.866 94.5692 311.604C92.8199 312.422 91.0574 313.211 89.2984 314.008C87.7944 314.69 85.9352 315.881 84.2841 315.993C84.1992 315.999 84.1708 315.891 84.2193 315.836C84.8431 315.125 85.8381 314.711 86.6579 314.249C87.4953 313.777 88.3484 313.333 89.1976 312.882C90.9679 311.942 92.7404 311.009 94.5278 310.102C98.1031 308.289 101.685 306.489 105.268 304.691C108.922 302.857 112.572 301.011 116.258 299.242C117.994 298.409 119.731 297.579 121.469 296.751C122.411 296.303 123.353 295.855 124.295 295.408C124.702 295.215 125.105 295.007 125.521 294.834C126.074 294.605 126.494 294.652 127.064 294.51C127.994 294.28 128.397 295.466 127.683 295.982C127.095 296.407 126.786 296.77 126.114 297.099ZM113.044 317.218C112.843 316.729 113.264 316.134 113.728 316.011C114.284 315.865 114.729 316.203 114.932 316.697C115.469 318.005 116.233 319.206 117.217 320.22C118.097 321.126 116.713 322.514 115.833 321.607C114.6 320.336 113.714 318.851 113.044 317.218ZM103.429 285.723C102.536 284.829 103.921 283.441 104.813 284.336L107.35 286.878C108.243 287.773 106.858 289.16 105.966 288.266L103.429 285.723ZM77.3982 281.577C75.5741 282.113 73.4465 282.606 72.2028 284.166C72.1421 284.242 72.0401 284.144 72.0766 284.068C73.6687 280.76 78.2346 279.6 81.3959 278.441C83.6319 277.621 85.9261 276.941 88.2397 276.334C88.0084 273.688 88.6462 270.853 88.8679 268.221C89.1045 265.411 89.2971 262.593 89.396 259.774C89.4971 256.898 89.5215 254.003 89.4271 251.126C89.3331 248.26 88.9619 245.43 88.7994 242.573C88.7837 242.297 89.1674 242.284 89.2502 242.512C90.2109 245.163 90.6213 248.099 90.9341 250.894C91.2561 253.773 91.363 256.644 91.3219 259.54C91.2794 262.517 91.1066 265.488 90.8694 268.456C90.7571 269.863 90.6267 271.268 90.5036 272.673C90.4096 273.746 90.3661 274.811 90.1478 275.849C91.5432 275.506 92.9417 275.181 94.3359 274.866C98.7814 273.86 103.246 272.927 107.673 271.84C109.846 271.307 111.988 270.667 114.151 270.1C116.188 269.565 118.338 268.917 120.429 268.679C121.176 268.594 121.271 269.617 120.777 269.964C119.077 271.16 116.819 271.993 114.856 272.663C112.886 273.335 110.837 273.818 108.818 274.316C104.606 275.354 100.354 276.203 96.1086 277.087C91.8691 277.97 87.6216 278.847 83.4298 279.937C81.4111 280.462 79.3993 280.988 77.3982 281.577ZM67.4022 229.083C66.3122 229.725 65.3282 228.028 66.4143 227.389C67.8353 226.553 69.3499 225.925 70.8767 225.312C72.0484 224.843 72.5525 226.741 71.3972 227.205C70.0251 227.755 68.6791 228.332 67.4022 229.083ZM63.4554 301.982C62.3625 302.617 61.3777 300.921 62.4675 300.288C63.9979 299.398 65.674 298.805 67.26 298.027C68.3884 297.473 69.3795 299.166 68.2479 299.721C66.6622 300.499 64.9859 301.092 63.4554 301.982ZM61.6802 260.601C62.7369 261.607 64.1472 262.081 65.477 262.61C66.6365 263.07 66.128 264.967 64.9565 264.502C63.2998 263.843 61.6122 263.242 60.2958 261.989C59.3801 261.117 60.7669 259.732 61.6802 260.601ZM73.3706 204.404C74.5323 204.86 74.0235 206.757 72.8501 206.296C71.5487 205.784 70.2047 205.395 68.9033 204.883C67.7419 204.426 68.2504 202.53 69.4238 202.991C70.7252 203.502 72.0692 203.892 73.3706 204.404ZM93.9937 182.082C95.2281 181.874 95.7538 183.765 94.5143 183.974C92.9765 184.235 91.4621 184.539 90.0036 185.104C88.8258 185.561 88.3205 183.663 89.4831 183.212C90.9419 182.647 92.4562 182.342 93.9937 182.082ZM100.808 236.43C99.6762 235.872 100.669 234.181 101.796 234.736C102.983 235.321 104.213 235.773 105.509 236.049C106.743 236.313 106.217 238.204 104.989 237.942C103.53 237.63 102.143 237.088 100.808 236.43ZM107.244 205.816C108.463 205.482 108.978 207.375 107.764 207.709C105.629 208.295 103.431 208.6 101.28 209.121C100.054 209.419 99.5357 207.526 100.76 207.229C102.91 206.707 105.109 206.403 107.244 205.816ZM134.546 196.21C135.785 196.439 135.257 198.33 134.026 198.102C132.715 197.859 131.386 197.855 130.057 197.854C128.795 197.854 128.798 195.891 130.057 195.892C131.567 195.893 133.058 195.934 134.546 196.21ZM223.589 206.461C220.391 206.154 217.187 205.909 213.979 205.725C213.83 205.717 213.683 205.708 213.534 205.7C213.517 205.666 213.495 205.634 213.472 205.6C212.425 204.059 211.654 202.519 210.986 200.778C210.348 199.119 209.728 197.41 208.745 195.914C207.623 194.209 206.108 192.876 204.448 191.72C203.441 192.398 202.506 193.193 201.651 194.035C200.751 194.921 199.367 193.534 200.267 192.648C201.026 191.899 201.837 191.208 202.695 190.583C201.705 189.98 200.695 189.414 199.71 188.85C196.017 186.738 192.236 184.786 188.377 183.001C186.583 182.169 184.767 181.431 182.939 180.682C181.955 180.28 180.984 179.763 180 179.297C180.071 178.6 179.863 177.82 179.329 177.362C178.935 177.026 178.63 176.9 178.16 176.663C178.055 176.626 177.991 176.604 177.962 176.591C177.984 176.596 178.047 176.616 178.152 176.65C178.402 176.766 178.422 176.731 178.211 176.55C178.199 176.153 177.418 175.314 177.24 174.904C176.618 173.499 176.425 172.012 175.507 170.732C174.242 168.968 172.118 168.301 170.138 168.9C169.932 166.778 169.878 164.564 169.081 162.67C169.059 162.619 168.988 162.596 168.956 162.653C168.124 164.073 168.053 165.655 167.989 167.293C167.928 168.831 167.987 170.403 168.187 171.931C168.06 172.029 167.931 172.123 167.796 172.213C167.165 172.63 166.484 172.952 165.77 173.19C164.409 173.641 162.982 173.837 161.556 173.906C157.873 174.082 154.077 173.709 150.455 173.077C146.792 172.436 141.175 171.475 137.916 169.638C135.764 168.427 133.78 166.947 131.768 165.515C132.498 163.16 132.684 160.629 131.95 158.64C131.861 158.402 131.49 158.358 131.419 158.64C130.958 160.538 130.824 162.447 130.212 164.323C130.202 164.35 130.193 164.38 130.183 164.406C129.992 164.277 129.801 164.149 129.61 164.021C129.17 163.729 128.57 163.948 128.306 164.365C124.079 171.038 117.386 171.421 110.358 172.613C102.666 173.918 94.9359 175.326 87.5406 177.879C80.4682 180.322 73.7091 183.879 68.3546 189.191C67.1426 190.394 66.009 191.676 64.9391 193.013C65.9743 193.144 67.0009 193.348 68.0142 193.667C69.2141 194.045 68.6985 195.938 67.4937 195.559C66.1913 195.149 64.8745 194.946 63.5442 194.845C59.906 199.833 57.0692 205.489 54.6162 211.057C49.911 221.731 46.8483 233.099 45.439 244.673C46.2128 244.208 47.0005 243.765 47.8079 243.353C48.9296 242.782 49.919 244.475 48.796 245.048C47.5489 245.683 46.3376 246.384 45.1639 247.144C44.6512 252.21 44.4525 257.309 44.5729 262.399C44.8592 274.535 46.494 287.027 50.1917 298.606C52.005 304.289 54.4082 309.926 57.9884 314.728C59.6084 316.903 61.4487 318.866 63.6169 320.502C64.6667 321.296 65.7778 322.005 66.95 322.604C68.4599 323.379 70.4274 323.634 71.7293 324.73C72.1576 325.091 72.4879 325.566 72.7375 326.104C72.5932 327.124 72.576 328.147 72.855 329.167C72.9431 329.486 73.1829 329.746 73.479 329.871C73.4839 329.959 73.4839 330.045 73.4839 330.128C73.4839 330.168 73.5427 330.177 73.55 330.138C73.5622 330.062 73.5745 329.986 73.5867 329.908C73.6822 329.94 73.7825 329.955 73.8853 329.955C77.6025 329.969 81.3245 329.878 85.0466 329.751C84.7588 328.867 84.4471 327.991 84.1478 327.108C83.7413 325.907 85.6327 325.397 86.0355 326.586C86.3857 327.619 86.7518 328.643 87.0775 329.68C91.0657 329.531 95.0527 329.353 99.0325 329.221C107.497 328.939 115.96 328.846 124.427 328.667C137.576 328.388 150.82 327.816 163.99 328.375C164.445 327.406 164.955 326.46 165.438 325.504C166.008 324.376 167.697 325.37 167.129 326.494C166.793 327.158 166.445 327.814 166.114 328.477C168.781 328.616 171.446 328.799 174.105 329.049C178.642 329.476 183.135 330.234 187.667 330.705C192.275 331.186 196.783 331.1 201.354 330.337C202.176 330.2 202.661 329.702 202.862 329.084C202.869 329.081 202.874 329.076 202.878 329.069C203.113 328.794 203.334 328.566 203.561 328.367C203.833 328.191 204.127 328.041 204.472 327.909C205.115 327.663 205.786 327.514 206.466 327.413C207.215 327.301 207.974 327.291 208.723 327.198C209.354 327.117 209.971 326.996 210.587 326.849C211.696 326.585 212.748 326.239 213.796 325.78C214.708 325.38 215.533 324.806 216.311 324.181C217.922 323.001 219.316 321.495 220.535 319.93C221.245 319.015 221.913 318.066 222.52 317.078C223.577 315.366 224.478 313.587 225.388 311.794C225.718 311.263 226.02 310.719 226.295 310.164C224.516 309.638 222.72 309.21 220.834 309.18C219.573 309.159 219.573 307.197 220.834 307.217C222.997 307.252 225.043 307.759 227.076 308.362C227.175 308.098 227.27 307.833 227.358 307.564C227.6 307.002 227.801 306.425 227.967 305.842C228.065 305.577 228.163 305.312 228.261 305.047C228.481 304.13 228.701 303.21 228.924 302.29C229.367 300.819 229.717 299.325 229.974 297.812C230.189 296.816 230.356 295.813 230.468 294.797C230.811 292.337 231.09 289.882 231.109 287.395C231.08 285.862 230.982 284.331 230.816 282.808C230.745 281.773 230.625 280.743 230.463 279.72C230.253 278.2 230.045 276.694 229.695 275.193C229.433 274.178 229.171 273.162 228.909 272.146C228.256 270.03 227.485 267.955 226.597 265.926C226.548 265.799 226.3 265.519 226.151 265.517C226.039 265.514 225.882 265.617 225.933 265.755C225.939 265.767 225.943 265.782 225.948 265.794C225.897 265.679 225.848 265.561 225.797 265.446C225.753 265.338 225.581 265.122 225.449 265.125C225.442 265.125 225.434 265.125 225.425 265.127C225.459 265.102 225.491 265.07 225.523 265.034C226.401 263.991 226.971 262.62 227.6 261.413C228.121 260.418 228.613 259.368 228.755 258.242C228.88 257.254 228.711 256.28 228.092 255.48C227.387 254.57 226.061 254.144 226.797 252.829C227.634 251.333 228.865 250.035 227.639 248.336C227.015 247.47 226.027 246.994 225.292 246.241C224.448 245.37 224.047 244.205 224.069 243.016C224.12 243.045 224.189 243.031 224.213 242.957C224.923 240.808 224.409 238.449 223.682 236.357C223.286 235.221 222.446 234.909 221.47 234.853C225.698 226.575 229.656 218.165 233.182 209.561C233.3 209.279 233.415 208.997 233.529 208.714C233.701 208.293 233.339 207.731 232.92 207.638C229.871 206.968 226.695 206.755 223.589 206.461Z" fill="#07122A"/>
<path fill-rule="evenodd" clip-rule="evenodd" d="M188.311 103.935C187.73 96.3945 188.631 88.4909 185.73 81.3236C180.672 69.4317 166.489 65.4666 155.494 60.9392C151.089 59.6347 136.266 59.4523 131.109 57.7258C119.436 53.8182 116.647 49.1623 107.371 56.6025C105.806 57.8735 104.826 59.2549 104.111 61.1422L104.141 61.1503C103.937 61.9372 104.155 62.7223 104.615 63.322C100.594 67.442 98.9106 73.6189 100.974 79.1034C107.708 93.3755 107.391 101.092 105.222 116.436C102.388 130.759 108.863 135.992 119.585 143.785C119.149 144.634 119.058 145.761 119.627 146.51C132.027 163.973 155.405 172.311 175.436 163.447C183.567 159.82 187.197 151.142 189.268 143.311C191.682 134.543 192.423 125.303 190.458 116.372C189.666 112.241 188.634 108.14 188.311 103.935Z" fill="white"/>
<path fill-rule="evenodd" clip-rule="evenodd" d="M116.79 20.3911C118.295 20.1646 119.432 21.1005 119.973 22.4196L120.001 22.4906C120.175 22.9395 120.368 23.3761 120.576 23.8053C124.342 21.9535 129.716 22.4293 132.1 26.1795C133.801 28.8579 132.763 32.0366 132.122 34.8768L131.701 36.7482C132.515 37.2672 133.128 38.1965 133.099 39.1588L133.096 39.2328L132.924 41.8425C133.468 41.2907 133.965 40.6897 134.407 40.0496C134.713 39.4879 135.044 38.9361 135.399 38.4014C137.486 35.2545 142.172 37.9893 140.45 41.3593C140.119 42.0093 139.747 42.6249 139.348 43.2185C138.898 44.0941 138.529 44.9942 138.245 45.9189C139.06 46.2746 139.686 47.0643 139.752 48.2563C139.906 51.0402 138.448 53.3629 136.128 54.8222C135.445 55.2515 134.74 55.3349 134.102 55.1754C133.989 55.3275 133.876 55.4796 133.769 55.6341C134.694 56.3871 135.528 57.2455 136.245 58.1972C138.404 57.8734 140.574 57.7213 142.745 57.7164C145.398 56.414 148.574 56.441 151.425 56.9291C153.261 57.2431 155.023 57.8538 156.829 58.2928C158.732 58.7539 160.666 58.7711 162.592 59.085C165.019 59.4799 167.148 60.6033 168.487 62.3962C169.958 62.4403 171.504 63.0437 172.787 63.8629C175.772 65.7711 178.741 67.7063 181.719 69.6268C182.862 70.3641 183.289 71.5411 183.079 72.854L183.065 72.9379L182.964 73.4824L183.2 73.8176C184.112 75.1076 185.103 76.4587 185.693 77.8826C186.785 79.4597 187.771 81.1128 188.644 82.8174C189.821 85.1083 190.793 87.5365 191.451 90.0284C191.615 90.6588 191.779 91.294 191.887 91.9366C192.041 92.8441 191.804 93.548 191.674 94.4187C191.512 95.5225 191.454 96.6409 191.282 97.7471C191.167 98.4804 190.546 98.841 189.895 98.8606C190.14 100.727 190.316 102.606 190.485 104.47C190.722 107.134 190.884 109.805 191.023 112.476C191.743 113.523 193.213 114.352 194.275 114.639C195.746 115.034 197.288 114.605 198.678 114.102C199.551 113.785 200.269 114.887 199.843 115.622C198.504 117.933 195.641 117.923 193.473 116.9C192.555 116.469 191.75 115.843 191.153 115.029C191.189 115.804 191.229 116.579 191.268 117.356L191.304 118.061C191.745 126.285 192.697 134.792 191.155 142.936C188.485 157.041 176.839 167.782 162.611 168.616C155.145 169.053 148.928 166.843 145.837 165.61C142.745 164.377 143.947 161.864 146.093 162.582C149.79 163.82 156.582 165.664 162.66 164.868C176.986 162.991 189.134 155.814 187.886 124.906C187.709 120.523 187.164 116.137 187.046 111.754C186.934 107.47 186.975 103.182 186.787 98.8998L186.724 97.4387C186.651 95.7314 186.572 94.0162 186.444 92.307C186.29 91.6447 186.163 90.9727 185.975 90.3227C185.463 88.5543 184.795 86.835 183.965 85.1941C183.782 85.3339 183.576 85.4345 183.354 85.4737C181.663 85.7779 180.077 85.692 178.493 84.9856C177.754 84.6594 177.103 84.2253 176.497 83.6882C176.208 83.4355 176.014 83.1903 175.863 82.9352C175.097 82.9474 174.331 82.7169 173.851 82.165C173.304 81.536 173.213 80.8863 173.427 80.2849L173.45 80.2249L173.396 80.2053C172.75 81.8805 171.463 83.3546 170.051 84.3504C167.819 85.9299 165.027 86.3861 162.349 86.4278C159.393 86.472 156.276 86.0158 153.358 85.5498C152.588 85.4271 151.822 85.2873 151.07 85.0985C151.041 85.1279 151.012 85.1622 150.98 85.1917C148.476 87.5929 144.955 88.2109 141.778 86.8399C139.943 86.0477 138.404 84.7722 137.043 83.3104C137.024 84.0757 136.984 84.8409 136.918 85.5988L136.891 85.8998C136.755 87.3113 136.495 88.8086 135.43 89.8273C133.71 91.478 131.214 90.8157 129.229 89.7414C129.232 89.7929 129.232 89.8469 129.232 89.9009C129.768 91.7257 130.306 93.5529 130.844 95.3802L130.96 95.7695C131.352 97.0669 131.781 98.3661 131.899 99.724C132.124 102.319 130.401 104.882 127.524 104.011C126.014 103.556 124.805 102.284 123.644 101.265L122.913 100.631C124.805 106.829 126.116 113.248 126.239 119.716C126.246 120.067 125.945 120.332 125.612 120.344C124.834 120.376 123.997 120.221 123.214 119.91C123.17 119.907 123.126 119.905 123.079 119.897C121.743 119.704 120.503 119.221 119.409 118.507C119.661 119.309 119.773 120.17 119.707 121.07C119.69 121.288 119.35 121.364 119.301 121.124C118.67 118.011 115.036 115.659 111.903 116.255C108.541 116.895 106.064 119.794 105.457 123.093C104.806 126.638 106.052 130.736 108.36 133.471C109.422 134.731 110.819 135.784 112.478 136.049C113.237 136.169 114.025 136.127 114.762 135.911C115.075 135.818 115.368 135.688 115.667 135.565C116.103 135.389 116.612 135.362 117.023 135.175C117.955 134.756 118.892 135.617 118.42 136.576C118.009 137.412 117.639 137.976 116.957 138.408C117.51 139.085 118.011 140.027 118.197 140.279C119.147 141.565 120.111 142.779 121.193 143.954C122.294 145.146 123.495 146.235 124.766 147.243L125.299 147.665C126.523 148.638 127.588 149.539 128.451 150.934C129.131 152.035 128.25 153.529 126.975 153.512C122.986 153.455 120.087 149.943 118.021 146.875C117.727 146.436 117.451 145.972 117.194 145.496C117.101 145.646 116.998 145.786 116.883 145.913L117.111 146.527C117.786 148.332 114.877 149.511 114.032 147.826C113.418 146.605 112.706 145.442 111.913 144.344C111.446 144.277 110.988 143.993 110.733 143.625C110.09 142.69 109.368 141.746 108.759 140.75C108.421 140.429 108.073 140.12 107.719 139.818C107.616 139.909 107.511 140 107.41 140.096C106.965 141.113 106.414 142.043 105.731 142.919L105.585 143.105C104.277 144.758 102.573 146.449 100.465 146.853C99.8215 146.975 99.2023 146.173 99.7725 145.661C101.248 144.331 102.993 143.426 104.354 141.942C105.024 141.211 105.639 140.406 106.169 139.562L106.289 139.367C106.377 139.222 106.468 139.078 106.561 138.93C105.947 138.511 105.333 138.089 104.718 137.667C103.027 139.115 100.825 139.778 98.9551 140.977L98.7692 141.099C97.0782 142.232 95.2966 139.725 96.6524 138.349C98.1468 136.838 99.3944 135.036 100.718 133.356C100.096 132.207 99.8011 130.848 99.6908 129.475C99.6472 129.086 99.6132 128.697 99.5792 128.308C98.6297 128.323 97.6753 127.996 96.8677 127.435L96.5618 127.216C95.5805 127.53 94.5502 127.682 93.564 127.655C91.2441 127.587 90.2946 124.93 91.7458 123.25C93.2263 121.533 95.8179 121.158 97.8711 121.992C97.9371 121.958 98.0056 121.921 98.0717 121.884C97.9738 121.433 97.9956 121.024 98.107 120.664L98.0747 120.445C97.6232 119.75 97.3263 118.958 97.2137 118.12C97.1247 117.457 97.1428 116.799 97.296 116.144C97.3469 115.926 97.4528 115.7 97.5338 115.473C97.3669 115.05 97.2688 114.614 97.2385 114.175C97.1917 114.119 97.1452 114.062 97.1012 114C96.0824 112.566 96.2882 110.839 97.2578 109.679C97.2622 109.605 97.269 109.531 97.2791 109.458C97.2223 109.33 97.1702 109.2 97.1227 109.07C96.1754 108.112 95.4799 106.959 95.6096 105.531C95.6857 104.691 96.0303 103.935 96.5518 103.369C96.4593 103.095 96.4505 102.777 96.5625 102.512C95.7303 100.293 95.8355 97.6212 96.4346 95.1398C96.3024 94.7621 96.2339 94.3525 96.2486 93.9184C96.3171 92.0764 97.9078 90.384 99.7921 90.4061C100.019 90.4081 100.231 90.4378 100.435 90.4812L100.438 90.4373C100.51 89.8844 100.662 89.3735 100.884 88.9151C100.775 88.8756 100.674 88.819 100.585 88.7437C99.378 89.3892 98.1004 89.8827 96.7608 90.219C95.7758 90.4662 94.7668 89.3441 95.3791 88.4175C95.6632 87.9875 95.9767 87.6014 96.3144 87.2487C95.8343 87.2514 95.3468 87.2841 94.8537 87.3476C93.9678 87.4629 92.9791 86.857 92.404 86.0378C91.6895 86.7344 90.9724 87.4285 90.2554 88.1226C88.4396 89.8861 85.6963 88.5887 85.41 86.2635C84.8692 86.1188 84.3651 85.8735 83.9221 85.5228C81.0589 86.7688 77.9779 87.4531 74.8284 87.5831C72.5672 87.6763 71.2457 85.0371 72.3029 83.1731C73.0126 81.9222 73.8936 80.7989 74.9091 79.8227C73.3332 80.3059 71.7058 80.6542 70.0441 80.8773C69.146 80.9975 67.8759 80.2519 67.5162 79.4253C66.1409 76.2466 66.2583 72.933 67.8417 69.8402C67.9029 69.7175 67.9714 69.5998 68.0375 69.4821C68.2014 69.0725 68.3801 68.6678 68.5734 68.2704C66.6254 66.2347 66.4566 63.208 67.5064 60.6744C67.0855 59.9901 66.924 59.166 67.2103 58.4204C68.0252 56.2742 69.1999 54.2925 70.6829 52.5903C70.5409 52.3156 70.4161 52.0237 70.3109 51.7098C69.4764 49.1712 70.443 46.1078 72.3934 44.3394C73.6195 43.2258 75.0291 42.5587 76.5341 42.1319C77.1679 41.0086 77.9828 39.9956 78.9323 39.1421C78.969 39.0611 79.0057 38.9802 79.0473 38.8993C80.5254 36.1081 83.2173 34.6119 86.1026 34.2661C86.2151 33.1746 86.9493 32.1322 88.0162 31.7938C88.3099 30.8495 88.748 29.9469 89.35 29.1277C90.297 27.8376 91.8706 27.2293 93.3536 28.0755C94.166 28.539 94.9442 29.0713 95.6735 29.6599C96.001 29.506 96.3724 29.4063 96.7913 29.3746L96.8971 29.368L99.31 29.2454C100.321 28.7966 101.329 28.3256 102.34 27.867C102.947 27.3642 103.624 26.9448 104.363 26.6333C105.2 26.2825 106.057 26.0839 106.916 26.0176C107.613 25.7895 108.316 25.5884 109.03 25.4314C110.709 25.0635 112.466 24.8575 114.208 24.8747C114.244 24.4227 114.262 23.9653 114.258 23.5025L114.255 23.2706C114.216 21.7867 115.398 20.6021 116.79 20.3911ZM115.099 139.114C114.859 139.166 114.617 139.208 114.375 139.237C114.448 139.419 114.522 139.6 114.593 139.782C114.788 139.892 114.987 139.997 115.185 140.096C115.126 139.762 115.092 139.426 115.099 139.114ZM102.526 135.37L102.364 135.67C102.337 135.719 102.311 135.768 102.286 135.816C102.631 135.789 102.978 135.796 103.321 135.835L103.32 135.799C103.276 135.784 103.232 135.77 103.19 135.749C102.953 135.636 102.734 135.508 102.526 135.37ZM109.321 121.671C111.487 121.797 113.321 122.13 115.29 123.079L115.459 123.162C117.199 124.028 120.077 125.627 119.835 127.92C119.766 128.573 119.294 129.259 118.55 129.208C116.511 129.068 115.346 127.008 113.966 125.723C112.574 124.428 110.863 123.096 109.177 122.205C108.939 122.08 109.033 121.683 109.292 121.671L109.321 121.671ZM99.5033 91.4559C98.9845 91.473 99.1582 91.9783 99.425 91.5564C99.447 91.5221 99.4739 91.4877 99.5033 91.4559ZM127.508 57.7258C122.594 57.8553 117.649 60.7629 113.969 63.702C110.766 66.259 108.001 69.3003 105.553 72.5784C104.923 74.2109 104.382 75.8775 103.925 77.5564C103.624 78.665 103.436 79.7859 103.184 80.9043L103.106 81.2472C102.908 81.6181 102.76 82.0171 102.653 82.4294C103.099 82.8778 103.678 83.1988 104.315 83.3512C104.521 83.4002 104.691 83.5064 104.826 83.6472C105.339 82.7892 105.787 81.8837 106.048 80.9237L106.058 80.8793C107.044 79.2608 108.115 77.6925 109.263 76.178C112.429 71.9961 115.917 68.1846 120.109 65.0132C123.287 62.6096 126.841 60.7259 130.619 59.502C129.694 58.7542 128.644 58.1626 127.508 57.7258Z" fill="#07122A"/>
<path fill-rule="evenodd" clip-rule="evenodd" d="M171.803 148.673C170 149.196 168.065 149.243 166.227 148.703C164.56 148.212 162.849 147.134 161.622 145.706C160.533 144.438 159.827 142.897 159.855 141.252C159.858 141.064 159.925 140.907 160.028 140.785C160.139 140.654 160.294 140.564 160.46 140.525C160.631 140.485 160.811 140.499 160.965 140.569C161.104 140.633 161.224 140.74 161.298 140.898C161.487 141.146 161.674 141.39 161.863 141.628C163.379 143.504 164.847 144.906 167.126 145.409C168.363 145.682 169.598 145.561 170.731 145.144C171.944 144.699 173.041 143.915 173.9 142.912C174.288 142.459 174.747 142.274 175.195 142.271C175.703 142.267 176.205 142.504 176.584 142.882C176.956 143.254 177.205 143.759 177.227 144.288C177.247 144.751 177.096 145.236 176.694 145.668C175.372 147.092 173.657 148.135 171.803 148.673ZM171.747 125.178C173.595 126.304 176.411 128.929 174.423 131.72C172.083 134.181 168.713 131.359 167.053 130.083C165.514 129.094 163.784 131.638 165.212 132.793C177.209 141.695 182.078 125.473 172.682 123.854C171.647 123.676 171.263 124.83 171.747 125.178ZM154.46 120.224C153.866 119.844 153.167 119.713 152.393 120.066C151.788 120.342 150.727 121.261 149.988 122.47C149.483 123.297 149.125 124.267 149.199 125.277C149.216 125.512 149.13 125.685 148.994 125.813C148.886 125.914 148.73 125.988 148.547 126.011C148.392 126.031 148.218 126.013 148.077 125.969C147.808 125.885 147.666 125.71 147.612 125.568C147.095 124.191 147.318 122.655 147.898 121.269C148.68 119.399 150.1 117.832 151.031 117.327C152.623 116.463 154.502 116.423 156.097 117.304C157.455 118.053 158.303 119.264 159.148 120.497C159.327 120.76 159.505 121.02 159.689 121.276C160.058 121.788 160.095 122.297 159.952 122.732C159.794 123.215 159.39 123.623 158.886 123.836C158.419 124.033 157.878 124.061 157.399 123.858C156.994 123.687 156.623 123.354 156.388 122.788C155.992 121.835 155.332 120.783 154.46 120.224ZM184.626 122.345C184.219 122.557 183.901 122.621 183.449 122.486C183.2 122.41 182.953 122.266 182.76 122.073C182.569 121.881 182.431 121.643 182.377 121.378C182.245 120.725 181.889 120.114 181.381 119.715C180.946 119.375 180.398 119.194 179.79 119.296C179.134 119.406 178.51 119.827 178.079 120.325C177.935 120.491 177.822 120.68 177.709 120.867C177.497 121.218 177.291 121.545 176.998 121.802C176.888 121.9 176.72 121.968 176.559 121.968C176.493 121.968 176.426 121.958 176.363 121.938C175.71 121.281 175.584 120.783 175.605 120.288C175.627 119.77 175.831 119.246 176.161 118.756C176.933 117.608 178.4 116.666 179.39 116.453C180.746 116.161 182.093 116.511 183.172 117.27C184.283 118.051 185.106 119.264 185.363 120.63C185.425 120.959 185.398 121.315 185.273 121.623C185.151 121.924 184.938 122.181 184.626 122.345ZM157.45 107.981C156.637 108.776 155.674 108.899 154.699 109.008C154.158 109.07 153.726 109.119 153.301 109.215C152.132 109.48 150.976 109.878 149.922 110.452C148.82 111.051 147.62 111.774 146.756 112.701C146.55 112.921 146.357 113.153 146.163 113.384C145.986 113.596 145.816 113.799 145.636 113.995C145.43 114.221 145.234 114.457 145.039 114.693C144.919 114.892 144.895 114.94 144.871 114.991C144.834 115.068 144.792 115.153 144.744 115.245C144.677 115.371 144.599 115.509 144.518 115.633C144.382 115.862 144.31 115.924 144.247 115.953C144.143 115.999 144.044 116.022 143.948 116.01C143.858 115.998 143.773 115.955 143.689 115.884C143.272 115.53 143.149 114.95 143.161 114.333C143.18 113.398 143.524 112.363 143.842 111.726C144.579 110.247 145.602 108.71 146.833 107.606C148.236 106.346 149.772 105.392 151.536 104.735C152.632 104.326 153.901 103.951 155.096 103.999C155.955 104.033 156.776 104.289 157.453 104.929C157.87 105.321 158.069 105.88 158.069 106.438C158.069 107.007 157.862 107.579 157.45 107.981ZM186.28 115.257C186.229 115.342 186.157 115.401 186.077 115.436C185.994 115.473 185.9 115.483 185.811 115.468C185.722 115.453 185.637 115.413 185.57 115.351C185.506 115.291 185.457 115.213 185.435 115.116C184.894 112.738 183.845 110.969 181.607 109.828C180.505 109.267 179.239 108.91 178.04 108.626C177.692 108.543 177.323 108.49 176.953 108.436C175.791 108.266 174.62 108.071 173.863 107.13C173.407 106.563 173.215 105.837 173.323 105.174C173.425 104.55 173.789 103.977 174.451 103.634C176.099 102.78 178.146 103.618 179.81 104.332C179.933 104.385 180.055 104.437 180.173 104.487C181.8 105.175 183.284 106.084 184.504 107.383C185.472 108.414 186.368 109.938 186.73 111.506C187.03 112.81 186.959 114.141 186.28 115.257Z" fill="#07122A"/>
</svg>
