<svg width="33" height="50" viewBox="0 0 33 50" fill="none" xmlns="http://www.w3.org/2000/svg">
<path d="M8.33759 49.9107C12.8537 49.9107 16.5197 46.2448 16.5197 41.7286V33.5466H8.33759C3.82145 33.5466 0.155518 37.2125 0.155518 41.7286C0.155518 46.2448 3.82145 49.9107 8.33759 49.9107Z" fill="white"/>
<path d="M0.155518 25.3664C0.155518 20.8503 3.82145 17.1844 8.33759 17.1844H16.5197V33.5464H8.33759C3.82145 33.5484 0.155518 29.8825 0.155518 25.3664Z" fill="#E2E2E2"/>
<path d="M0.155518 9.00427C0.155518 4.48813 3.82145 0.822205 8.33759 0.822205H16.5197V17.1844H8.33759C3.82145 17.1844 0.155518 13.5204 0.155518 9.00427Z" fill="white"/>
<path d="M16.5178 0.822205H24.6999C29.216 0.822205 32.882 4.48813 32.882 9.00427C32.882 13.5204 29.216 17.1844 24.6999 17.1844H16.5178V0.822205Z" fill="#ECECEC"/>
<path d="M32.882 25.3664C32.882 29.8826 29.216 33.5485 24.6999 33.5485C20.1838 33.5485 16.5178 29.8826 16.5178 25.3664C16.5178 20.8503 20.1838 17.1844 24.6999 17.1844C29.216 17.1844 32.882 20.8503 32.882 25.3664Z" fill="white"/>
</svg>
