<svg width="24" height="24" viewBox="0 0 24 24" fill="none" xmlns="http://www.w3.org/2000/svg">
<path fill-rule="evenodd" clip-rule="evenodd" d="M0 3.59903C0 1.61134 1.61178 0 3.6 0H20.4C22.3882 0 24 1.61134 24 3.59903V21.5942C24 22.9193 22.9255 23.9936 21.6 23.9936H7.37724C7.31872 23.9978 7.25961 24 7.2 24H2.4C1.07452 24 0 22.9258 0 21.6006V3.59903ZM3.6 2.39936H20.4C21.0627 2.39936 21.6 2.93647 21.6 3.59903V14.3961H16.8C15.4745 14.3961 14.4 15.4704 14.4 16.7955V17.9952H9.6V16.8019C9.6 15.4768 8.52548 14.4026 7.2 14.4026H2.4V3.59903C2.4 2.93647 2.93726 2.39936 3.6 2.39936Z" fill="white" fill-opacity="0.2"/>
</svg>
