<svg width="36" height="31" viewBox="0 0 36 31" fill="none" xmlns="http://www.w3.org/2000/svg">
<path d="M29 22C29 22.5304 28.7893 23.0391 28.4142 23.4142C28.0391 23.7893 27.5304 24 27 24H9C8.46957 24 7.96086 23.7893 7.58579 23.4142C7.21071 23.0391 7 22.5304 7 22V11C7 10.4696 7.21071 9.96086 7.58579 9.58579C7.96086 9.21071 8.46957 9 9 9H13L15 6H21L23 9H27C27.5304 9 28.0391 9.21071 28.4142 9.58579C28.7893 9.96086 29 10.4696 29 11V22Z" stroke="#8698A8" stroke-width="1.5" stroke-linecap="round" stroke-linejoin="round"/>
<path d="M18 20C20.2091 20 22 18.2091 22 16C22 13.7909 20.2091 12 18 12C15.7909 12 14 13.7909 14 16C14 18.2091 15.7909 20 18 20Z" stroke="#8698A8" stroke-width="1.5" stroke-linecap="round" stroke-linejoin="round"/>
<path d="M0.25 8C0.25 8.41421 0.585786 8.75 1 8.75C1.41421 8.75 1.75 8.41421 1.75 8H0.25ZM7.5 2.25C7.91421 2.25 8.25 1.91421 8.25 1.5C8.25 1.08579 7.91421 0.75 7.5 0.75V2.25ZM1.75 23C1.75 22.5858 1.41421 22.25 1 22.25C0.585786 22.25 0.25 22.5858 0.25 23H1.75ZM7.5 30.25C7.91421 30.25 8.25 29.9142 8.25 29.5C8.25 29.0858 7.91421 28.75 7.5 28.75V30.25ZM34.25 7.5C34.25 7.91421 34.5858 8.25 35 8.25C35.4142 8.25 35.75 7.91421 35.75 7.5H34.25ZM28.5 0.25C28.0858 0.25 27.75 0.585786 27.75 1C27.75 1.41421 28.0858 1.75 28.5 1.75V0.25ZM35.75 23.5C35.75 23.0858 35.4142 22.75 35 22.75C34.5858 22.75 34.25 23.0858 34.25 23.5H35.75ZM28.5 29.25C28.0858 29.25 27.75 29.5858 27.75 30C27.75 30.4142 28.0858 30.75 28.5 30.75V29.25ZM1.75 8V3.5H0.25V8H1.75ZM3 2.25H7.5V0.75H3V2.25ZM1.75 3.5C1.75 2.80964 2.30964 2.25 3 2.25V0.75C1.48122 0.75 0.25 1.98122 0.25 3.5H1.75ZM0.25 23V27.5H1.75V23H0.25ZM3 30.25H7.5V28.75H3V30.25ZM0.25 27.5C0.25 29.0188 1.48122 30.25 3 30.25V28.75C2.30964 28.75 1.75 28.1904 1.75 27.5H0.25ZM35.75 7.5V3H34.25V7.5H35.75ZM33 0.25H28.5V1.75H33V0.25ZM35.75 3C35.75 1.48122 34.5188 0.25 33 0.25V1.75C33.6904 1.75 34.25 2.30964 34.25 3H35.75ZM34.25 23.5V28H35.75V23.5H34.25ZM33 29.25H28.5V30.75H33V29.25ZM34.25 28C34.25 28.6904 33.6904 29.25 33 29.25V30.75C34.5188 30.75 35.75 29.5188 35.75 28H34.25Z" fill="#8698A8"/>
</svg>
