<svg width="26" height="26" viewBox="0 0 26 26" fill="none" xmlns="http://www.w3.org/2000/svg">
<path d="M13 5.5C13.6904 5.5 14.25 6.05964 14.25 6.75V11.75H19.25C19.9404 11.75 20.5 12.3096 20.5 13C20.5 13.6904 19.9404 14.25 19.25 14.25H14.25V19.25C14.25 19.9404 13.6904 20.5 13 20.5C12.3096 20.5 11.75 19.9404 11.75 19.25V14.25H6.75C6.05964 14.25 5.5 13.6904 5.5 13C5.5 12.3096 6.05964 11.75 6.75 11.75H11.75V6.75C11.75 6.05964 12.3096 5.5 13 5.5Z" fill="white"/>
<path fill-rule="evenodd" clip-rule="evenodd" d="M4.25 25.5C2.17893 25.5 0.5 23.8211 0.5 21.75V4.25C0.5 2.17893 2.17893 0.5 4.25 0.5H21.75C23.8211 0.5 25.5 2.17893 25.5 4.25V21.75C25.5 23.8211 23.8211 25.5 21.75 25.5H4.25ZM3 21.75C3 22.4404 3.55964 23 4.25 23H21.75C22.4404 23 23 22.4404 23 21.75V4.25C23 3.55964 22.4404 3 21.75 3H4.25C3.55964 3 3 3.55964 3 4.25V21.75Z" fill="white"/>
</svg>
